HIERARCHY
ROOT Hips
{
 OFFSET 0.000000 0.000000 0.000000
 CHANNELS 6 Xposition Yposition Zposition Yrotation Xrotation Zrotation
 JOINT Chest
 {
  OFFSET 0.000000 9.585900 0.002600
  CHANNELS 3 Yrotation Xrotation Zrotation
  JOINT Chest2
  {
   OFFSET 0.000000 9.601200 -0.005300
   CHANNELS 3 Yrotation Xrotation Zrotation
   JOINT Chest3
   {
    OFFSET 0.000000 9.561800 0.000000
    CHANNELS 3 Yrotation Xrotation Zrotation
    JOINT Chest4
    {
     OFFSET 0.000000 9.552100 0.000000
     CHANNELS 3 Yrotation Xrotation Zrotation
     JOINT Neck
     {
      OFFSET 0.000000 14.453000 0.000000
      CHANNELS 3 Yrotation Xrotation Zrotation
      JOINT Head
      {
       OFFSET 0.000000 8.936500 -0.011300
       CHANNELS 3 Yrotation Xrotation Zrotation
       End Site
       {
        OFFSET 0.000000 17.073600 -0.006000
       }
      }
     }
     JOINT RightCollar
     {
      OFFSET -2.921100 9.558500 0.000000
      CHANNELS 3 Yrotation Xrotation Zrotation
      JOINT RightShoulder
      {
       OFFSET -13.519700 0.000000 0.000000
       CHANNELS 3 Yrotation Xrotation Zrotation
       JOINT RightElbow
       {
        OFFSET 0.000000 -29.696600 0.000000
        CHANNELS 3 Yrotation Xrotation Zrotation
        JOINT RightWrist
        {
         OFFSET 0.000000 -24.004700 0.000000
         CHANNELS 3 Yrotation Xrotation Zrotation
         End Site
         {
          OFFSET 0.000000 -17.728500 0.000000
         }
        }
       }
      }
     }
     JOINT LeftCollar
     {
      OFFSET 2.921100 9.558500 0.000000
      CHANNELS 3 Yrotation Xrotation Zrotation
      JOINT LeftShoulder
      {
       OFFSET 13.519700 0.000000 0.000000
       CHANNELS 3 Yrotation Xrotation Zrotation
       JOINT LeftElbow
       {
        OFFSET 0.000000 -29.696600 0.000000
        CHANNELS 3 Yrotation Xrotation Zrotation
        JOINT LeftWrist
        {
         OFFSET 0.000000 -24.004700 0.000000
         CHANNELS 3 Yrotation Xrotation Zrotation
         End Site
         {
          OFFSET 0.000000 -17.728500 0.000000
         }
        }
       }
      }
     }
    }
   }
  }
 }
 JOINT RightHip
 {
  OFFSET -7.771700 -0.012900 -0.001300
  CHANNELS 3 Yrotation Xrotation Zrotation
  JOINT RightKnee
  {
   OFFSET 0.000000 -40.869800 0.001200
   CHANNELS 3 Yrotation Xrotation Zrotation
   JOINT RightAnkle
   {
    OFFSET 0.000000 -39.717900 0.002100
    CHANNELS 3 Yrotation Xrotation Zrotation
    JOINT RightToe
    {
     OFFSET 0.000000 -4.965400 11.033500
     CHANNELS 3 Yrotation Xrotation Zrotation
     End Site
     {
      OFFSET 0.000000 -1.423100 5.872300
     }
    }
   }
  }
 }
 JOINT LeftHip
 {
  OFFSET 7.771700 -0.012900 -0.001300
  CHANNELS 3 Yrotation Xrotation Zrotation
  JOINT LeftKnee
  {
   OFFSET 0.000000 -40.869800 0.001200
   CHANNELS 3 Yrotation Xrotation Zrotation
   JOINT LeftAnkle
   {
    OFFSET 0.000000 -39.717900 0.002100
    CHANNELS 3 Yrotation Xrotation Zrotation
    JOINT LeftToe
    {
     OFFSET 0.000000 -4.965400 11.033500
     CHANNELS 3 Yrotation Xrotation Zrotation
     End Site
     {
      OFFSET 0.000000 -1.423100 5.872300
     }
    }
   }
  }
 }
}
MOTION
Frames: 16
Frame Time: 0.008333
-209.535155 57.598889 130.816626 178.066744 -32.214367 -2.532142 2.133215 21.812405 1.675705 0.176167 2.928691 0.169386 0.321229 4.786651 0.230240 1.348264 18.408937 1.146708 -0.813020 13.744512 0.198573 -1.556967 -10.203614 0.581639 2.680165 -1.461766 -2.085641 13.010232 -15.778178 -19.651641 151.679576 -73.328096 -112.975410 18.894495 -8.500014 -36.649637 -6.079872 -4.518205 -0.364746 -2.977794 -7.775809 -1.367871 39.164717 -36.732554 -82.851919 -0.606361 -8.989124 -1.314685 5.973875 -43.910807 -3.191349 -5.182792 69.901425 -7.496426 -10.029117 26.228504 -9.865608 -2.964540 -18.281820 17.563875 -7.703398 -41.577098 1.768289 32.670889 69.806807 36.202849 -13.998406 2.673286 -5.628875 0.243274 0.323830 0.109066
-209.539822 57.596760 130.819315 178.074356 -32.212289 -2.535887 2.137567 21.817721 1.660672 0.184961 2.932829 0.159305 0.317817 4.784678 0.238338 1.362157 18.414105 1.135487 -0.788862 13.788284 0.145177 -1.544540 -10.183645 0.582944 2.671868 -1.455051 -2.077080 12.996732 -15.784579 -19.637504 151.702628 -73.323761 -113.005571 18.899155 -8.508703 -36.661067 -6.090010 -4.510147 -0.352247 -2.967643 -7.767613 -1.383871 39.147763 -36.771826 -82.848327 -0.621670 -9.014727 -1.350275 5.972758 -43.919927 -3.201306 -5.198313 69.892703 -7.511315 -10.029309 26.271743 -9.893003 -2.968304 -18.308732 17.591568 -7.705930 -41.577803 1.765366 32.671181 69.805359 36.204915 -13.992346 2.672845 -5.622623 0.231076 0.323529 0.104247
-209.544366 57.595239 130.820757 178.087593 -32.214227 -2.542594 2.138606 21.827644 1.646347 0.179763 2.928881 0.167654 0.319375 4.785957 0.237993 1.374913 18.423902 1.119539 -0.778010 13.806128 0.131162 -1.518425 -10.150878 0.552031 2.673767 -1.429434 -2.103200 12.966802 -15.830301 -19.593228 151.687866 -73.328660 -112.988385 18.902012 -8.521433 -36.677106 -6.095987 -4.502406 -0.345185 -2.962814 -7.760231 -1.392861 39.167201 -36.800528 -82.876059 -0.649387 -9.009920 -1.367504 5.968700 -43.923772 -3.210601 -5.197193 69.887829 -7.507443 -10.053938 26.306091 -9.921225 -2.973305 -18.328408 17.616819 -7.710345 -41.574029 1.759263 32.673427 69.803520 36.211092 -13.982211 2.672321 -5.616204 0.222384 0.323192 0.099175
-209.547908 57.593988 130.821567 178.100762 -32.215811 -2.553755 2.143907 21.837011 1.638265 0.177680 2.930893 0.166758 0.316285 4.782022 0.247127 1.384811 18.430828 1.110186 -0.766118 13.827698 0.109360 -1.491960 -10.118110 0.521354 2.667100 -1.421990 -2.105813 12.959484 -15.822533 -19.581795 151.617110 -73.326541 -112.924357 18.918452 -8.553290 -36.719638 -6.099521 -4.495949 -0.346224 -2.953000 -7.753027 -1.403319 39.178290 -36.833496 -82.901032 -0.674928 -9.004393 -1.382538 5.967785 -43.927441 -3.223675 -5.215633 69.882440 -7.510243 -10.062918 26.339315 -9.953790 -2.976913 -18.349991 17.641850 -7.723363 -41.571215 1.763534 32.681447 69.805310 36.221740 -13.979108 2.669451 -5.612825 0.215292 0.321913 0.095303
-209.550780 57.592867 130.821944 178.115581 -32.215146 -2.567544 2.141295 21.840444 1.638548 0.187730 2.936241 0.156221 0.327762 4.794031 0.231091 1.383896 18.424038 1.122813 -0.754487 13.846489 0.095754 -1.464449 -10.083452 0.490887 2.657395 -1.418343 -2.099527 12.940509 -15.815859 -19.565175 151.593120 -73.316126 -112.901102 18.927062 -8.579470 -36.739863 -6.105869 -4.495261 -0.341002 -2.960777 -7.743224 -1.408324 39.195609 -36.872477 -82.918141 -0.691494 -8.999578 -1.392206 5.967515 -43.932520 -3.244831 -5.212633 69.882752 -7.481555 -10.053957 26.354365 -9.989204 -2.976632 -18.363978 17.665977 -7.741105 -41.570435 1.771179 32.686256 69.807382 36.230351 -13.974072 2.668884 -5.611797 0.210576 0.319118 0.092031
-209.554149 57.591638 130.822196 178.131310 -32.209631 -2.575961 2.134100 21.839704 1.632395 0.194365 2.941657 0.146957 0.320364 4.787028 0.244386 1.394315 18.437271 1.093044 -0.742437 13.862710 0.090615 -1.434813 -10.046750 0.460872 2.646353 -1.416779 -2.083659 12.920442 -15.790784 -19.556039 151.630460 -73.291404 -112.950467 18.938508 -8.610341 -36.755661 -6.116390 -4.501829 -0.314389 -2.947340 -7.734807 -1.426959 39.194736 -36.908359 -82.929685 -0.714774 -8.995156 -1.419982 5.974764 -43.939946 -3.273655 -5.190781 69.883243 -7.435431 -10.065838 26.362244 -10.019873 -2.993583 -18.364032 17.690811 -7.756108 -41.574566 1.772396 32.684770 69.807439 36.230990 -13.968758 2.672337 -5.612011 0.210743 0.315165 0.090920
-209.561580 57.588992 130.824118 178.183518 -32.184111 -2.576445 2.088570 21.827463 1.579158 0.192838 2.940409 0.154817 0.322898 4.788864 0.242887 1.397141 18.430564 1.100785 -0.731317 13.887471 0.062233 -1.402798 -10.009026 0.430323 2.642720 -1.412802 -2.078565 12.915305 -15.796306 -19.548173 151.570717 -73.300671 -112.897119 18.952794 -8.656354 -36.792793 -6.117802 -4.499587 -0.310849 -2.943333 -7.726368 -1.438093 39.200555 -36.940638 -82.941214 -0.744994 -8.998060 -1.468847 5.979021 -43.962372 -3.340078 -5.173956 69.881731 -7.396206 -10.119292 26.358460 -10.060609 -2.955381 -18.362502 17.703701 -7.783559 -41.599133 1.740712 32.683875 69.806107 36.230011 -13.941057 2.703692 -5.600425 0.185494 0.285864 0.079470
-209.563428 57.588185 130.823833 178.196531 -32.173198 -2.585360 2.081432 21.819416 1.573286 0.196904 2.942887 0.144473 0.326851 4.798916 0.222678 1.404033 18.417274 1.127535 -0.721394 13.914144 0.037198 -1.369702 -9.972718 0.397630 2.639200 -1.406397 -2.072408 12.903819 -15.780018 -19.541960 151.575301 -73.287922 -112.910096 18.966443 -8.683422 -36.817642 -6.122229 -4.484670 -0.327698 -2.937232 -7.728097 -1.424955 39.191633 -36.966016 -82.939491 -0.757555 -8.999406 -1.491480 5.995483 -43.971795 -3.369074 -5.158276 69.881459 -7.355240 -10.115078 26.354385 -10.080433 -2.961149 -18.357127 17.721832 -7.806205 -41.609099 1.751321 32.686460 69.809251 36.228892 -13.932793 2.706605 -5.601388 0.181927 0.281736 0.079426
-209.565012 57.588099 130.822715 178.209724 -32.164296 -2.592214 2.072792 21.819440 1.558678 0.197389 2.943405 0.143385 0.328910 4.799338 0.221984 1.404614 18.418893 1.119156 -0.704481 13.931983 0.024748 -1.338354 -9.936585 0.364527 2.638054 -1.399779 -2.066612 12.870630 -15.757319 -19.523180 151.607770 -73.253532 -112.944364 18.979873 -8.715070 -36.843140 -6.125721 -4.487909 -0.311142 -2.937010 -7.720449 -1.433862 39.209436 -37.004247 -82.962437 -0.785508 -8.993261 -1.541648 6.009948 -43.980072 -3.396856 -5.156796 69.882593 -7.326910 -10.134200 26.349260 -10.099859 -2.960826 -18.350956 17.730409 -7.827210 -41.619070 1.759321 32.697631 69.816766 36.234200 -13.923519 2.708130 -5.596120 0.172409 0.275079 0.075371
-209.566187 57.588355 130.821593 178.223809 -32.152419 -2.598847 2.064465 21.818420 1.544342 0.198071 2.943459 0.142586 0.329816 4.797511 0.221070 1.408669 18.420507 1.114116 -0.692098 13.949494 0.010858 -1.309099 -9.899770 0.333416 2.631729 -1.395720 -2.062195 12.866072 -15.769992 -19.508295 151.542140 -73.255742 -112.890672 18.991783 -8.745645 -36.869468 -6.127944 -4.482872 -0.323124 -2.942666 -7.725906 -1.418324 39.219814 -37.041731 -82.976935 -0.810274 -8.985250 -1.593245 6.020465 -43.989037 -3.427991 -5.143391 69.882693 -7.287101 -10.122180 26.339244 -10.120642 -2.952485 -18.346637 17.740864 -7.847064 -41.629520 1.766426 32.695688 69.818675 36.227987 -13.918157 2.714538 -5.593303 0.168070 0.267172 0.072460
-209.566087 57.589565 130.819724 178.232252 -32.144291 -2.607615 2.065574 21.827532 1.523370 0.196377 2.934809 0.155791 0.331181 4.795440 0.223383 1.411318 18.419202 1.105347 -0.683802 13.957958 0.015191 -1.274804 -9.851950 0.283864 2.623589 -1.364715 -2.079564 12.851439 -15.788226 -19.474961 151.571229 -73.232298 -112.925224 19.004122 -8.758607 -36.898078 -6.129738 -4.482090 -0.316941 -2.956810 -7.722043 -1.413655 39.234875 -37.116146 -83.022069 -0.783211 -8.976505 -1.587996 6.016338 -43.994781 -3.434061 -5.125642 69.879791 -7.260998 -10.124182 26.336881 -10.127472 -2.953049 -18.342924 17.744722 -7.863454 -41.635271 1.777828 32.695153 69.823807 36.229197 -13.915398 2.714359 -5.596453 0.165832 0.260570 0.072226
-209.565559 57.591213 130.817939 178.243630 -32.134247 -2.619203 2.058313 21.821262 1.521978 0.201188 2.940018 0.148168 0.328615 4.789001 0.234302 1.413534 18.428058 1.085386 -0.675355 13.961212 0.021891 -1.244876 -9.807550 0.236063 2.619313 -1.366657 -2.064728 12.843154 -15.773380 -19.461651 151.530036 -73.213314 -112.900890 19.016628 -8.790981 -36.926921 -6.132933 -4.488722 -0.298751 -2.962504 -7.721837 -1.412760 39.235372 -37.158196 -83.042798 -0.760363 -8.973701 -1.575409 5.975550 -43.998763 -3.411431 -5.090805 69.871753 -7.247198 -10.109354 26.327740 -10.134829 -2.934822 -18.336316 17.750562 -7.883857 -41.641267 1.789948 32.695704 69.826317 36.228074 -13.905306 2.713722 -5.593048 0.153781 0.256450 0.068548
-209.565947 57.593493 130.815693 178.253290 -32.126522 -2.624078 2.048156 21.816944 1.513255 0.199974 2.943750 0.139670 0.329338 4.790212 0.232793 1.415307 18.430000 1.079537 -0.662232 13.978575 0.008260 -1.218353 -9.777933 0.206074 2.624539 -1.366737 -2.054120 12.830254 -15.755439 -19.442933 151.409068 -73.178840 -112.804992 19.015145 -8.841590 -36.956214 -6.129919 -4.485616 -0.299307 -2.984191 -7.717148 -1.390714 39.258463 -37.208076 -83.077327 -0.765364 -8.966262 -1.608869 5.940338 -44.002798 -3.393026 -5.068555 69.864710 -7.246391 -10.124237 26.329069 -10.138189 -2.940570 -18.318221 17.754661 -7.896335 -41.644674 1.791145 32.695754 69.826074 36.227196 -13.893220 2.715334 -5.588837 0.145870 0.251282 0.063970
-209.566372 57.595837 130.813907 178.262482 -32.115452 -2.629369 2.038658 21.810750 1.496793 0.200084 2.944643 0.139248 0.326528 4.798067 0.219746 1.417844 18.433559 1.073775 -0.642284 13.987759 0.007169 -1.199610 -9.762717 0.191744 2.630671 -1.366998 -2.037581 12.821295 -15.726551 -19.421841 151.419245 -73.128578 -112.831244 19.027624 -8.861124 -36.987666 -6.125762 -4.485548 -0.291509 -2.994397 -7.720729 -1.356618 39.276198 -37.243838 -83.118145 -0.772463 -8.962834 -1.642301 5.917634 -44.010460 -3.384760 -5.059301 69.858844 -7.248355 -10.128453 26.330402 -10.140496 -2.931959 -18.310128 17.754055 -7.906212 -41.652044 1.791704 32.695182 69.824687 36.227861 -13.882335 2.720679 -5.584347 0.130416 0.242520 0.058974
-209.567210 57.598242 130.812412 178.270510 -32.102416 -2.633256 2.028035 21.816138 1.466653 0.201090 2.934292 0.151877 0.330397 4.792397 0.231010 1.418404 18.433909 1.072897 -0.639788 14.030713 -0.046031 -1.201504 -9.793722 0.235143 2.621791 -1.352191 -2.047967 12.824470 -15.722457 -19.406501 151.398746 -73.104843 -112.824056 19.038253 -8.882623 -37.018061 -6.133056 -4.477482 -0.306756 -2.997895 -7.722266 -1.326915 39.290940 -37.272333 -83.159261 -0.786480 -8.962666 -1.668736 5.897073 -44.020073 -3.378811 -5.046810 69.853692 -7.248374 -10.124951 26.331013 -10.139875 -2.925589 -18.298945 17.754119 -7.915645 -41.662052 1.793000 32.694812 69.824292 36.227401 -13.872770 2.726522 -5.580665 0.123671 0.234827 0.055251
-209.568270 57.600386 130.811608 178.282905 -32.084500 -2.640503 2.018676 21.811020 1.454791 0.199410 2.932721 0.150066 0.331405 4.793711 0.229953 1.421337 18.435859 1.068684 -0.631660 14.023150 -0.034626 -1.161297 -9.717495 0.136239 2.613933 -1.329227 -2.059547 12.824934 -15.741294 -19.379372 151.349523 -73.079516 -112.798807 19.038731 -8.910022 -37.034205 -6.141308 -4.479770 -0.306364 -2.993290 -7.728697 -1.301966 39.293841 -37.296048 -83.191539 -0.833050 -8.954764 -1.750437 5.865071 -44.033935 -3.367990 -5.031859 69.846188 -7.250367 -10.124715 26.334779 -10.132948 -2.918842 -18.290603 17.747017 -7.932632 -41.678400 1.799092 32.683122 69.825722 36.214389 -13.862407 2.739063 -5.578184 0.116658 0.223426 0.052598
